<?xml version="1.0" encoding="utf-8"?>
<!-- Generator: Adobe Illustrator 27.7.0, SVG Export Plug-In . SVG Version: 6.00 Build 0)  -->
<svg version="1.1" id="Layer_1" xmlns="http://www.w3.org/2000/svg" xmlns:xlink="http://www.w3.org/1999/xlink" x="0px" y="0px"
	 viewBox="0 0 500 500" style="enable-background:new 0 0 500 500;" xml:space="preserve">
<style type="text/css">
	.st0{fill:none;stroke:#393833;stroke-width:10;stroke-linecap:round;stroke-linejoin:round;}
</style>
<path class="st0" d="M445.3,236.3c3.1-14.4-17-24.9-25.5-26.6c-35.6-7.2-92.7-4.3-92.7-4.3l0,0c-9.3,0.3-30.6-1.4-41.7-10.3
	c-11.1-8.9-67.7-46.9-94.8-65c-0.1-0.1-0.2-0.3-0.1-0.4c3.6-6.9,19.6-19.5,56.3-19.5c37.1,0,102.8,0,102.8,0l0,0
	c35.5,0,51.8,12.9,51.8,42v23.1 M179.5,146.3l66.8,69.9c0.2,0.2,0.1,0.5-0.2,0.5l-96.6,25.5c-0.1,0-0.2,0-0.3-0.1l-30-32.4
	 M130.1,271.4l-46.4,16.3 M54.3,389.8l117.8-62.4c0.2-0.1,0.4,0,0.5,0.2c3.5,15.3,18.1,44.8,49.4,44.2c31.5-0.7,100.7-0.3,131.4,0
	c11.3-0.3,47.9-6,47.9-44.6c0-36.1,0-63.9,0-67.4c0-0.2-0.2-0.3-0.3-0.3c-89.8,8.3-281.4,34.7-332.7,73.7"/>
</svg>
