<svg width="243" height="32" viewBox="0 0 243 32" fill="none" xmlns="http://www.w3.org/2000/svg">
<path d="M29.9771 15.0183C30.1982 13.9877 28.7607 13.2396 28.1525 13.1166C25.6029 12.6006 21.5228 12.8096 21.5176 12.8098C21.5175 12.8098 21.5175 12.8098 21.5174 12.8098C20.8538 12.8302 19.328 12.7116 18.5319 12.0736C17.738 11.4375 13.6897 8.7152 11.7479 7.42233C11.738 7.41576 11.7348 7.40372 11.7402 7.39322C11.9986 6.89832 13.1455 6.00056 15.7674 6.00017C18.4213 5.99978 23.121 6.00017 23.121 6.00017C23.121 6.00017 23.121 6.00017 23.121 6.00017C25.6644 6.00017 26.8255 6.92022 26.8255 9.00662V10.6624M10.9571 8.57719L15.7397 13.5787C15.7521 13.5918 15.746 13.6134 15.7286 13.618L8.8145 15.4445C8.80604 15.4468 8.79704 15.4441 8.7911 15.4377L6.64442 13.1166M7.41849 17.534L4.10105 18.6996M2 26L10.432 21.5361C10.4458 21.5288 10.4627 21.536 10.4662 21.5512C10.718 22.6441 11.7626 24.7603 13.9981 24.7117C16.2539 24.6626 21.2043 24.6912 23.3975 24.7117C24.2084 24.6912 26.8255 24.2817 26.8255 21.5216C26.8255 18.9393 26.8255 16.9467 26.8255 16.7007C26.8255 16.6868 26.8144 16.6761 26.8005 16.6774C20.3762 17.273 6.66177 19.1572 2.99523 21.951" stroke="#000000" stroke-width="2" stroke-linecap="round" stroke-linejoin="round"/>
<path d="M41.4949 22.5V9.40909H46.161C47.1795 9.40909 48.0233 9.59446 48.6923 9.9652C49.3613 10.3359 49.862 10.843 50.1944 11.4865C50.5268 12.1257 50.693 12.8459 50.693 13.647C50.693 14.4524 50.5247 15.1768 50.188 15.8203C49.8556 16.4595 49.3528 16.9666 48.6795 17.3416C48.0105 17.7124 47.1689 17.8977 46.1547 17.8977H42.9458V16.223H45.9757C46.6191 16.223 47.1412 16.1122 47.5417 15.8906C47.9423 15.6648 48.2363 15.358 48.4238 14.9702C48.6113 14.5824 48.7051 14.1413 48.7051 13.647C48.7051 13.1527 48.6113 12.7138 48.4238 12.3303C48.2363 11.9467 47.9402 11.6463 47.5353 11.429C47.1348 11.2116 46.6064 11.103 45.9501 11.103H43.47V22.5H41.4949ZM55.6245 22.7173C55.0023 22.7173 54.4398 22.6023 53.937 22.3722C53.4341 22.1378 53.0357 21.799 52.7417 21.3558C52.4519 20.9126 52.307 20.3693 52.307 19.7259C52.307 19.1719 52.4135 18.7159 52.6266 18.358C52.8397 18 53.1273 17.7166 53.4895 17.5078C53.8517 17.299 54.2566 17.1413 54.704 17.0348C55.1515 16.9283 55.6074 16.8473 56.0719 16.7919C56.66 16.7237 57.1373 16.6683 57.5037 16.6257C57.8702 16.5788 58.1365 16.5043 58.3027 16.402C58.4689 16.2997 58.552 16.1335 58.552 15.9034V15.8587C58.552 15.3004 58.3944 14.8679 58.079 14.5611C57.7679 14.2543 57.3034 14.1009 56.6855 14.1009C56.0421 14.1009 55.535 14.2436 55.1642 14.5291C54.7978 14.8104 54.5442 15.1236 54.4036 15.4688L52.6074 15.0597C52.8205 14.4631 53.1316 13.9815 53.5407 13.6151C53.954 13.2443 54.4292 12.9759 54.9661 12.8097C55.503 12.6392 56.0676 12.554 56.66 12.554C57.052 12.554 57.4675 12.6009 57.9064 12.6946C58.3496 12.7841 58.763 12.9503 59.1465 13.1932C59.5343 13.4361 59.8517 13.7834 60.0989 14.2351C60.3461 14.6825 60.4696 15.2642 60.4696 15.9801V22.5H58.6032V21.1577H58.5265C58.4029 21.4048 58.2175 21.6477 57.9703 21.8864C57.7232 22.125 57.4057 22.3232 57.0179 22.4808C56.6301 22.6385 56.1657 22.7173 55.6245 22.7173ZM56.04 21.1832C56.5684 21.1832 57.0201 21.0788 57.3951 20.87C57.7743 20.6612 58.062 20.3885 58.258 20.0518C58.4583 19.7109 58.5584 19.3466 58.5584 18.9588V17.6932C58.4902 17.7614 58.3581 17.8253 58.1621 17.8849C57.9703 17.9403 57.7509 17.9893 57.5037 18.032C57.2566 18.0703 57.0158 18.1065 56.7814 18.1406C56.5471 18.1705 56.351 18.196 56.1934 18.2173C55.8226 18.2642 55.4838 18.343 55.177 18.4538C54.8745 18.5646 54.6316 18.7244 54.4483 18.9332C54.2694 19.1378 54.1799 19.4105 54.1799 19.7514C54.1799 20.2244 54.3546 20.5824 54.704 20.8253C55.0534 21.0639 55.4988 21.1832 56.04 21.1832ZM67.5984 12.6818V14.2159H62.2354V12.6818H67.5984ZM63.6737 10.3295H65.5849V19.6172C65.5849 19.9879 65.6403 20.267 65.7511 20.4545C65.8619 20.6378 66.0046 20.7635 66.1793 20.8317C66.3583 20.8956 66.5522 20.9276 66.761 20.9276C66.9144 20.9276 67.0487 20.9169 67.1637 20.8956C67.2788 20.8743 67.3683 20.8572 67.4322 20.8445L67.7773 22.4233C67.6665 22.4659 67.5089 22.5085 67.3043 22.5511C67.0998 22.598 66.8441 22.6236 66.5373 22.6278C66.0344 22.6364 65.5657 22.5469 65.131 22.3594C64.6964 22.1719 64.3448 21.8821 64.0763 21.4901C63.8079 21.098 63.6737 20.6058 63.6737 20.0135V10.3295ZM72.5698 22.7173C71.9476 22.7173 71.3851 22.6023 70.8823 22.3722C70.3794 22.1378 69.981 21.799 69.687 21.3558C69.3972 20.9126 69.2523 20.3693 69.2523 19.7259C69.2523 19.1719 69.3588 18.7159 69.5719 18.358C69.785 18 70.0726 17.7166 70.4348 17.5078C70.7971 17.299 71.2019 17.1413 71.6493 17.0348C72.0968 16.9283 72.5527 16.8473 73.0172 16.7919C73.6053 16.7237 74.0826 16.6683 74.449 16.6257C74.8155 16.5788 75.0819 16.5043 75.248 16.402C75.4142 16.2997 75.4973 16.1335 75.4973 15.9034V15.8587C75.4973 15.3004 75.3397 14.8679 75.0243 14.5611C74.7132 14.2543 74.2488 14.1009 73.6309 14.1009C72.9874 14.1009 72.4803 14.2436 72.1096 14.5291C71.7431 14.8104 71.4895 15.1236 71.3489 15.4688L69.5527 15.0597C69.7658 14.4631 70.0769 13.9815 70.486 13.6151C70.8993 13.2443 71.3745 12.9759 71.9114 12.8097C72.4483 12.6392 73.013 12.554 73.6053 12.554C73.9973 12.554 74.4128 12.6009 74.8517 12.6946C75.2949 12.7841 75.7083 12.9503 76.0918 13.1932C76.4796 13.4361 76.7971 13.7834 77.0442 14.2351C77.2914 14.6825 77.415 15.2642 77.415 15.9801V22.5H75.5485V21.1577H75.4718C75.3482 21.4048 75.1628 21.6477 74.9157 21.8864C74.6685 22.125 74.351 22.3232 73.9632 22.4808C73.5755 22.6385 73.111 22.7173 72.5698 22.7173ZM72.9853 21.1832C73.5137 21.1832 73.9654 21.0788 74.3404 20.87C74.7196 20.6612 75.0073 20.3885 75.2033 20.0518C75.4036 19.7109 75.5037 19.3466 75.5037 18.9588V17.6932C75.4355 17.7614 75.3034 17.8253 75.1074 17.8849C74.9157 17.9403 74.6962 17.9893 74.449 18.032C74.2019 18.0703 73.9611 18.1065 73.7267 18.1406C73.4924 18.1705 73.2963 18.196 73.1387 18.2173C72.7679 18.2642 72.4292 18.343 72.1223 18.4538C71.8198 18.5646 71.5769 18.7244 71.3936 18.9332C71.2147 19.1378 71.1252 19.4105 71.1252 19.7514C71.1252 20.2244 71.2999 20.5824 71.6493 20.8253C71.9988 21.0639 72.4441 21.1832 72.9853 21.1832ZM84.0771 26.3864C83.2972 26.3864 82.6261 26.2841 82.0636 26.0795C81.5053 25.875 81.0494 25.6044 80.6957 25.2678C80.342 24.9311 80.0778 24.5625 79.9031 24.1619L81.5458 23.4844C81.6609 23.6719 81.8143 23.87 82.006 24.0788C82.2021 24.2919 82.4663 24.473 82.7987 24.6222C83.1353 24.7713 83.5678 24.8459 84.0962 24.8459C84.8207 24.8459 85.4194 24.669 85.8924 24.3153C86.3654 23.9659 86.6019 23.4077 86.6019 22.6406V20.7102H86.4805C86.3654 20.919 86.1992 21.1513 85.9819 21.407C85.7688 21.6626 85.4748 21.8842 85.0998 22.0717C84.7248 22.2592 84.2369 22.353 83.636 22.353C82.8604 22.353 82.1616 22.1719 81.5394 21.8097C80.9215 21.4432 80.4315 20.9041 80.0692 20.1925C79.7113 19.4766 79.5323 18.5966 79.5323 17.5526C79.5323 16.5085 79.7092 15.6136 80.0629 14.8679C80.4208 14.1222 80.9109 13.5511 81.533 13.1548C82.1552 12.7543 82.8604 12.554 83.6488 12.554C84.2582 12.554 84.7504 12.6562 85.1254 12.8608C85.5004 13.0611 85.7923 13.2955 86.0011 13.5639C86.2141 13.8324 86.3782 14.0689 86.4933 14.2734H86.6339V12.6818H88.5067V22.7173C88.5067 23.5611 88.3107 24.2536 87.9187 24.7947C87.5266 25.3359 86.9961 25.7365 86.3271 25.9964C85.6623 26.2564 84.9123 26.3864 84.0771 26.3864ZM84.0579 20.7678C84.6076 20.7678 85.0721 20.6399 85.4513 20.3842C85.8349 20.1243 86.1246 19.7536 86.3207 19.272C86.521 18.7862 86.6211 18.2045 86.6211 17.527C86.6211 16.8665 86.5231 16.2848 86.3271 15.782C86.131 15.2791 85.8434 14.8871 85.4641 14.6058C85.0849 14.3203 84.6161 14.1776 84.0579 14.1776C83.4826 14.1776 83.0032 14.3267 82.6197 14.625C82.2362 14.919 81.9464 15.3196 81.7504 15.8267C81.5586 16.3338 81.4627 16.9006 81.4627 17.527C81.4627 18.1705 81.5607 18.7351 81.7567 19.2209C81.9528 19.7067 82.2425 20.0859 82.6261 20.3587C83.0138 20.6314 83.4911 20.7678 84.0579 20.7678ZM95.2056 22.6982C94.2852 22.6982 93.4819 22.4872 92.7958 22.0653C92.1097 21.6435 91.5771 21.0533 91.1978 20.2947C90.8185 19.5362 90.6289 18.6499 90.6289 17.6357C90.6289 16.6172 90.8185 15.7266 91.1978 14.9638C91.5771 14.201 92.1097 13.6087 92.7958 13.1868C93.4819 12.7649 94.2852 12.554 95.2056 12.554C96.1261 12.554 96.9293 12.7649 97.6154 13.1868C98.3015 13.6087 98.8342 14.201 99.2134 14.9638C99.5927 15.7266 99.7823 16.6172 99.7823 17.6357C99.7823 18.6499 99.5927 19.5362 99.2134 20.2947C98.8342 21.0533 98.3015 21.6435 97.6154 22.0653C96.9293 22.4872 96.1261 22.6982 95.2056 22.6982ZM95.212 21.0938C95.8086 21.0938 96.3029 20.9361 96.695 20.6207C97.087 20.3054 97.3768 19.8857 97.5643 19.3615C97.756 18.8374 97.8519 18.2599 97.8519 17.6293C97.8519 17.0028 97.756 16.4276 97.5643 15.9034C97.3768 15.375 97.087 14.951 96.695 14.6314C96.3029 14.3118 95.8086 14.152 95.212 14.152C94.6112 14.152 94.1126 14.3118 93.7163 14.6314C93.3242 14.951 93.0323 15.375 92.8406 15.9034C92.6531 16.4276 92.5593 17.0028 92.5593 17.6293C92.5593 18.2599 92.6531 18.8374 92.8406 19.3615C93.0323 19.8857 93.3242 20.3054 93.7163 20.6207C94.1126 20.9361 94.6112 21.0938 95.212 21.0938ZM103.827 16.6705V22.5H101.916V12.6818H103.75V14.2798H103.872C104.097 13.7599 104.451 13.3423 104.933 13.027C105.419 12.7116 106.03 12.554 106.767 12.554C107.436 12.554 108.022 12.6946 108.525 12.9759C109.028 13.2528 109.418 13.6662 109.695 14.2159C109.972 14.7656 110.11 15.4453 110.11 16.255V22.5H108.199V16.4851C108.199 15.7734 108.014 15.2173 107.643 14.8168C107.272 14.4119 106.763 14.2095 106.115 14.2095C105.672 14.2095 105.278 14.3054 104.933 14.4972C104.592 14.6889 104.321 14.9702 104.121 15.3409C103.925 15.7074 103.827 16.1506 103.827 16.6705ZM112.673 22.5V12.6818H114.585V22.5H112.673ZM113.639 11.1669C113.306 11.1669 113.021 11.0561 112.782 10.8345C112.548 10.6087 112.431 10.3402 112.431 10.0291C112.431 9.71378 112.548 9.44531 112.782 9.22372C113.021 8.99787 113.306 8.88494 113.639 8.88494C113.971 8.88494 114.254 8.99787 114.489 9.22372C114.727 9.44531 114.847 9.71378 114.847 10.0291C114.847 10.3402 114.727 10.6087 114.489 10.8345C114.254 11.0561 113.971 11.1669 113.639 11.1669ZM120.013 22.7173C119.391 22.7173 118.828 22.6023 118.326 22.3722C117.823 22.1378 117.424 21.799 117.13 21.3558C116.841 20.9126 116.696 20.3693 116.696 19.7259C116.696 19.1719 116.802 18.7159 117.015 18.358C117.228 18 117.516 17.7166 117.878 17.5078C118.24 17.299 118.645 17.1413 119.093 17.0348C119.54 16.9283 119.996 16.8473 120.461 16.7919C121.049 16.7237 121.526 16.6683 121.892 16.6257C122.259 16.5788 122.525 16.5043 122.691 16.402C122.858 16.2997 122.941 16.1335 122.941 15.9034V15.8587C122.941 15.3004 122.783 14.8679 122.468 14.5611C122.157 14.2543 121.692 14.1009 121.074 14.1009C120.431 14.1009 119.924 14.2436 119.553 14.5291C119.186 14.8104 118.933 15.1236 118.792 15.4688L116.996 15.0597C117.209 14.4631 117.52 13.9815 117.929 13.6151C118.343 13.2443 118.818 12.9759 119.355 12.8097C119.892 12.6392 120.456 12.554 121.049 12.554C121.441 12.554 121.856 12.6009 122.295 12.6946C122.738 12.7841 123.152 12.9503 123.535 13.1932C123.923 13.4361 124.24 13.7834 124.488 14.2351C124.735 14.6825 124.858 15.2642 124.858 15.9801V22.5H122.992V21.1577H122.915C122.792 21.4048 122.606 21.6477 122.359 21.8864C122.112 22.125 121.794 22.3232 121.407 22.4808C121.019 22.6385 120.554 22.7173 120.013 22.7173ZM120.429 21.1832C120.957 21.1832 121.409 21.0788 121.784 20.87C122.163 20.6612 122.451 20.3885 122.647 20.0518C122.847 19.7109 122.947 19.3466 122.947 18.9588V17.6932C122.879 17.7614 122.747 17.8253 122.551 17.8849C122.359 17.9403 122.14 17.9893 121.892 18.032C121.645 18.0703 121.404 18.1065 121.17 18.1406C120.936 18.1705 120.74 18.196 120.582 18.2173C120.211 18.2642 119.873 18.343 119.566 18.4538C119.263 18.5646 119.02 18.7244 118.837 18.9332C118.658 19.1378 118.569 19.4105 118.569 19.7514C118.569 20.2244 118.743 20.5824 119.093 20.8253C119.442 21.0639 119.887 21.1832 120.429 21.1832ZM132.321 22.5V9.40909H134.296V20.7997H140.228V22.5H132.321ZM148.547 18.4283V12.6818H150.465V22.5H148.586V20.7997H148.483C148.257 21.3239 147.895 21.7607 147.397 22.1101C146.902 22.4553 146.287 22.6278 145.549 22.6278C144.919 22.6278 144.36 22.4893 143.875 22.2124C143.393 21.9311 143.014 21.5156 142.737 20.9659C142.464 20.4162 142.328 19.7365 142.328 18.9268V12.6818H144.239V18.6967C144.239 19.3658 144.424 19.8984 144.795 20.2947C145.166 20.6911 145.647 20.8892 146.24 20.8892C146.598 20.8892 146.953 20.7997 147.307 20.6207C147.665 20.4418 147.961 20.1712 148.196 19.8089C148.434 19.4467 148.551 18.9865 148.547 18.4283ZM154.541 12.6818L156.708 16.5043L158.894 12.6818H160.985L157.923 17.5909L161.01 22.5H158.92L156.708 18.831L154.503 22.5H152.406L155.462 17.5909L152.445 12.6818H154.541ZM169.166 18.4283V12.6818H171.084V22.5H169.205V20.7997H169.102C168.877 21.3239 168.514 21.7607 168.016 22.1101C167.521 22.4553 166.906 22.6278 166.169 22.6278C165.538 22.6278 164.98 22.4893 164.494 22.2124C164.012 21.9311 163.633 21.5156 163.356 20.9659C163.083 20.4162 162.947 19.7365 162.947 18.9268V12.6818H164.858V18.6967C164.858 19.3658 165.044 19.8984 165.414 20.2947C165.785 20.6911 166.267 20.8892 166.859 20.8892C167.217 20.8892 167.573 20.7997 167.926 20.6207C168.284 20.4418 168.58 20.1712 168.815 19.8089C169.053 19.4467 169.171 18.9865 169.166 18.4283ZM173.652 22.5V12.6818H175.499V14.2415H175.602C175.781 13.7131 176.096 13.2976 176.548 12.995C177.004 12.6882 177.519 12.5348 178.094 12.5348C178.214 12.5348 178.354 12.5391 178.516 12.5476C178.683 12.5561 178.812 12.5668 178.906 12.5795V14.4077C178.83 14.3864 178.693 14.3629 178.497 14.3374C178.301 14.3075 178.105 14.2926 177.909 14.2926C177.457 14.2926 177.055 14.3885 176.701 14.5803C176.352 14.7678 176.075 15.0298 175.87 15.3665C175.665 15.6989 175.563 16.0781 175.563 16.5043V22.5H173.652ZM182.067 26.1818C181.782 26.1818 181.522 26.1584 181.287 26.1115C181.053 26.0689 180.878 26.022 180.763 25.9709L181.223 24.4048C181.573 24.4986 181.884 24.5391 182.157 24.5263C182.429 24.5135 182.67 24.4112 182.879 24.2195C183.092 24.0277 183.279 23.7145 183.441 23.2798L183.678 22.6278L180.086 12.6818H182.131L184.618 20.3011H184.72L187.206 12.6818H189.258L185.212 23.8104C185.025 24.3217 184.786 24.7543 184.496 25.108C184.206 25.4659 183.861 25.7344 183.461 25.9134C183.06 26.0923 182.596 26.1818 182.067 26.1818ZM195.326 11.1094V9.40909H205.457V11.1094H201.373V22.5H199.404V11.1094H195.326ZM210.254 22.6982C209.334 22.6982 208.531 22.4872 207.845 22.0653C207.159 21.6435 206.626 21.0533 206.247 20.2947C205.867 19.5362 205.678 18.6499 205.678 17.6357C205.678 16.6172 205.867 15.7266 206.247 14.9638C206.626 14.201 207.159 13.6087 207.845 13.1868C208.531 12.7649 209.334 12.554 210.254 12.554C211.175 12.554 211.978 12.7649 212.664 13.1868C213.35 13.6087 213.883 14.201 214.262 14.9638C214.642 15.7266 214.831 16.6172 214.831 17.6357C214.831 18.6499 214.642 19.5362 214.262 20.2947C213.883 21.0533 213.35 21.6435 212.664 22.0653C211.978 22.4872 211.175 22.6982 210.254 22.6982ZM210.261 21.0938C210.857 21.0938 211.352 20.9361 211.744 20.6207C212.136 20.3054 212.426 19.8857 212.613 19.3615C212.805 18.8374 212.901 18.2599 212.901 17.6293C212.901 17.0028 212.805 16.4276 212.613 15.9034C212.426 15.375 212.136 14.951 211.744 14.6314C211.352 14.3118 210.857 14.152 210.261 14.152C209.66 14.152 209.161 14.3118 208.765 14.6314C208.373 14.951 208.081 15.375 207.889 15.9034C207.702 16.4276 207.608 17.0028 207.608 17.6293C207.608 18.2599 207.702 18.8374 207.889 19.3615C208.081 19.8857 208.373 20.3054 208.765 20.6207C209.161 20.9361 209.66 21.0938 210.261 21.0938ZM223.184 18.4283V12.6818H225.102V22.5H223.222V20.7997H223.12C222.894 21.3239 222.532 21.7607 222.033 22.1101C221.539 22.4553 220.923 22.6278 220.186 22.6278C219.555 22.6278 218.997 22.4893 218.511 22.2124C218.03 21.9311 217.651 21.5156 217.374 20.9659C217.101 20.4162 216.964 19.7365 216.964 18.9268V12.6818H218.876V18.6967C218.876 19.3658 219.061 19.8984 219.432 20.2947C219.803 20.6911 220.284 20.8892 220.876 20.8892C221.234 20.8892 221.59 20.7997 221.944 20.6207C222.302 20.4418 222.598 20.1712 222.832 19.8089C223.071 19.4467 223.188 18.9865 223.184 18.4283ZM227.67 22.5V12.6818H229.517V14.2415H229.619C229.798 13.7131 230.113 13.2976 230.565 12.995C231.021 12.6882 231.537 12.5348 232.112 12.5348C232.231 12.5348 232.372 12.5391 232.534 12.5476C232.7 12.5561 232.83 12.5668 232.924 12.5795V14.4077C232.847 14.3864 232.711 14.3629 232.515 14.3374C232.319 14.3075 232.123 14.2926 231.927 14.2926C231.475 14.2926 231.072 14.3885 230.719 14.5803C230.369 14.7678 230.092 15.0298 229.888 15.3665C229.683 15.6989 229.581 16.0781 229.581 16.5043V22.5H227.67ZM241.935 15.0788L240.203 15.3857C240.13 15.1641 240.015 14.9531 239.858 14.7528C239.704 14.5526 239.495 14.3885 239.231 14.2607C238.967 14.1328 238.637 14.0689 238.24 14.0689C237.699 14.0689 237.248 14.1903 236.885 14.4332C236.523 14.6719 236.342 14.9808 236.342 15.3601C236.342 15.6882 236.463 15.9524 236.706 16.1527C236.949 16.353 237.341 16.517 237.882 16.6449L239.442 17.0028C240.346 17.2116 241.019 17.5334 241.462 17.968C241.905 18.4027 242.127 18.9673 242.127 19.6619C242.127 20.25 241.956 20.7741 241.615 21.2344C241.279 21.6903 240.808 22.0483 240.203 22.3082C239.602 22.5682 238.905 22.6982 238.113 22.6982C237.013 22.6982 236.116 22.4638 235.422 21.995C234.727 21.522 234.301 20.8509 234.143 19.9815L235.99 19.7003C236.105 20.1818 236.342 20.5462 236.7 20.7933C237.058 21.0362 237.525 21.1577 238.1 21.1577C238.726 21.1577 239.227 21.0277 239.602 20.7678C239.977 20.5036 240.164 20.1818 240.164 19.8026C240.164 19.4957 240.049 19.2379 239.819 19.0291C239.593 18.8203 239.246 18.6626 238.777 18.5561L237.115 18.1918C236.199 17.983 235.522 17.6506 235.083 17.1946C234.648 16.7386 234.431 16.1612 234.431 15.4624C234.431 14.8828 234.593 14.3757 234.917 13.9411C235.24 13.5064 235.688 13.1676 236.259 12.9247C236.83 12.6776 237.484 12.554 238.221 12.554C239.282 12.554 240.118 12.7841 240.727 13.2443C241.336 13.7003 241.739 14.3118 241.935 15.0788Z" fill="#000000"/>
</svg>
