<svg width="48" height="48" viewBox="0 0 48 48" fill="none" xmlns="http://www.w3.org/2000/svg">
<path d="M22.5898 35.6934V24.9355L17.0168 19.3629C16.4535 18.7997 16.4535 17.8867 17.0168 17.3239C17.5796 16.7606 18.4926 16.7606 19.0558 17.3239L24.0319 22.2999L29.008 17.3239C29.5708 16.7606 30.4838 16.7606 31.047 17.3239C31.6099 17.8867 31.6099 18.7997 31.047 19.3629L25.4733 24.9363V35.6934H33.4578C33.7574 33.7162 34.7106 31.8661 36.1751 30.4785C37.8977 28.8459 39.2531 26.9211 40.2038 24.7572C41.1885 22.516 41.6877 20.129 41.6877 17.6622C41.6877 12.9835 39.876 8.57471 36.5867 5.24805C33.3 1.92432 28.9172 0.0632324 24.2461 0.00720215C24.1744 0.00646973 24.104 0.00610352 24.0326 0.00610352C14.4288 0.00610352 6.52848 7.75586 6.37724 17.3788C6.33805 19.8859 6.8134 22.3153 7.79118 24.6005C8.73381 26.8043 10.0943 28.7646 11.8345 30.4276C13.3257 31.8522 14.2969 33.7198 14.6031 35.6934H22.5898Z" fill="#000000"/>
<path d="M14.7075 38.5769V41.1964C14.7075 44.9515 17.7621 48.0061 21.5168 48.0061H26.5468C30.3015 48.0061 33.3564 44.9515 33.3564 41.1964V38.5769H14.7075Z" fill="#000000"/></svg>
