<svg width="56" height="34" viewBox="0 0 56 34" fill="none" xmlns="http://www.w3.org/2000/svg">
<path d="M1.51221 18.1664C0.651542 19.1269 0.651541 20.5812 1.51221 21.5418L11.6817 32.8916C12.6893 34.0161 14.4512 34.013 15.4548 32.8849V32.8849C16.3099 31.9239 16.3073 30.4741 15.4489 29.5161L5.27938 18.1664C4.27421 17.0445 2.51738 17.0445 1.51221 18.1664V18.1664ZM54.4828 1.11554C53.4741 -0.0103262 51.7108 -0.00991391 50.7025 1.11642L30.1377 24.0896C28.547 25.8666 25.7646 25.8656 24.1752 24.0875L18.8629 18.1447C17.8601 17.0228 16.1067 17.0156 15.0947 18.1292V18.1292C14.2203 19.0915 14.2151 20.5592 15.0828 21.5276L24.1762 31.6764C25.766 33.4507 28.5446 33.4507 30.1344 31.6764L54.4828 4.50204C55.3463 3.53834 55.3463 2.07924 54.4828 1.11554V1.11554ZM40.9136 4.48634C41.772 3.52831 41.7745 2.07855 40.9195 1.11751V1.11751C39.9159 -0.0105127 38.1539 -0.0136073 37.1464 1.11088L25.265 14.3712C24.4021 15.3343 24.4047 16.7932 25.271 17.7532V17.7532C26.2777 18.8689 28.0294 18.8658 29.0322 17.7466L40.9136 4.48634Z" fill="#161616"/>
</svg>
