<svg width="48" height="48" viewBox="0 0 48 48" fill="none" xmlns="http://www.w3.org/2000/svg">
<path d="M24.4683 21.3495C23.5661 21.6704 22.5938 21.0011 22.5938 20.0229V11.345H15.8948C14.6811 11.345 14.0382 12.7841 14.847 13.6892C15.3084 14.2042 15.5625 14.8703 15.5625 15.5637C15.5625 17.1142 14.3004 18.3762 12.75 18.3762C11.1996 18.3762 9.9375 17.1142 9.9375 15.5637C9.9375 14.8703 10.1916 14.2042 10.653 13.6892C11.4618 12.7841 10.8189 11.345 9.60516 11.345H4.21875C1.89244 11.345 0 13.2374 0 15.5637V32.4387C0 34.765 1.89244 36.6575 4.21875 36.6575H7.125C7.125 39.7598 9.64772 42.2825 12.75 42.2825C15.8523 42.2825 18.375 39.7598 18.375 36.6575H22.5938V27.9797C22.5938 27.0144 23.598 26.3513 24.4683 26.6531C26.2151 27.2753 28.2173 25.8717 28.2188 24.0013C28.2188 22.1282 26.2178 20.726 24.4683 21.3495Z" fill="#000000"/>
<path d="M43.7812 11.345H40.875C40.875 8.24269 38.3523 5.71997 35.25 5.71997C32.1477 5.71997 29.625 8.24269 29.625 11.345H25.4062V18.3762C28.5085 18.3762 31.0312 20.8989 31.0312 24.0012C31.0312 27.1035 28.5085 29.6262 25.4062 29.6262V36.6575H43.7812C46.1076 36.6575 48 34.765 48 32.4387V15.5637C48 13.2374 46.1076 11.345 43.7812 11.345Z" fill="#000000"/>
</svg>
